<?xml version="1.0" encoding="UTF-8"?>
<svg id="Layer_2" data-name="Layer 2" xmlns="http://www.w3.org/2000/svg" viewBox="0 0 402.19 184.56">
  <defs>
    <style>
      .cls-1 {
        fill: #383838;
      }
    </style>
  </defs>
  <g id="Layer_1-2" data-name="Layer 1">
    <g>
      <path class="cls-1" d="M402.05,67.57c-.09-12.68-5.4-23.06-15.75-30.33-4.03-2.84-6.82-5.19-7.58-10.7-1.02-7.48-9.29-12.01-17.36-11.04-8.23,1-13.8,7.08-14.1,15.1-.06,1.42-.67,3.46-1.7,4.08-13.23,7.96-19.37,19.74-19.39,34.96-.02,15.58-.01,31.15-.01,46.72v4.18c-3.7,.62-5.6-.59-5.97-3.9-.18-1.66-.41-3.33-.41-4.99-.03-13.06,.01-26.12-.01-39.18,0-3.59,.19-7.24-.32-10.76-2.69-18.25-18.65-32.05-37.44-32.58-18.6-.54-34.86,12.18-38.68,30.47-.81,3.91-.93,7.97-1.36,11.94h-25.48c0-1.31,.02-2.37,0-3.44-.02-1.08-.04-2.16-.15-3.23-1.51-14.66-8.71-25.53-22.21-31.54-13.43-5.97-26.43-4.43-38.37,4.24-6.38,4.64-10.72,10.91-13.19,18.39-3.25,9.79-1.44,19.84-1.95,30.36h35.01c.04,.37,.09,.75,.13,1.12-1.14,.28-2.28,.67-3.44,.81-1.42,.17-2.88,.03-4.3,.22-4.57,.64-5.4,2.28-3.12,6.2,4.51,7.76,9.05,15.51,13.61,23.24,.53,.9,1.21,1.71,2.06,2.89,3.92-6.9,7.88-13.33,11.3-20.02,3.53-6.91,.64-11.66-7.09-12.53-1.08-.12-2.1-.65-3.15-.98,.09-.31,.18-.62,.27-.92h28.93c-.37,1.1-.94,1.78-1.56,1.82-5.66,.42-8.99,3.87-11.65,8.45-4.98,8.6-10.11,17.11-15.14,25.68-.6,1.01-1.31,2.17-1.32,3.26-.06,7.66-.06,15.33,.22,22.99,.04,1.05,1.6,2.75,2.67,2.93,3.27,.58,6.64,.55,9.97,.8,1.13,.09,2.24,.34,3.35,.52-.04,.39-.09,.77-.13,1.16h-46.17c-.06-.32-.11-.64-.17-.96,1.11-.24,2.21-.6,3.34-.69,3.33-.27,6.67-.37,10-.68,2.14-.19,3-1.45,2.93-3.67-.14-4.07-.36-8.18,.03-12.21,.67-7.02-1.28-13-5.13-18.85-5.07-7.69-9.42-15.84-14.15-23.76-1.54-2.57-3.36-4.95-7.04-4.46v81.53h54.07c1.57,7.83,5.97,12.58,13.67,14.1,7.18,1.42,15.32-2.91,17.87-9.57,2.74-7.14,0-14.48-7.14-18.19-2.33-1.21-2.86-2.68-2.85-5.06,.05-25.27,.01-50.55,.01-75.83,0-.8,.17-1.6,.25-2.35,7.17-.52,8.16-.04,11.58,5.67,2.15,3.6,3.95,7.45,6.43,10.8,5.52,7.48,7.58,15.65,6.71,24.89-.54,5.66-.36,5.89-6.23,6.09-1.83,.06-3.65,.26-5.48,.4,.05,.32,.09,.63,.14,.95h12.44c0,2.07-.06,3.72,.01,5.36,.18,4.06-.04,8.21,.72,12.16,3.87,20.15,21.79,33.35,42.17,31.33,19.44-1.91,34.32-18.56,34.48-38.61,.03-3.32,0-6.63,0-9.98h6.79v17.76c4.06-.22,7.4-.32,10.72-.6,5.57-.46,5.69-.5,5.71-6.25,.09-15.81,.22-31.63,.02-47.44-.15-12.49,2.52-10.93-11.82-12.22-1.24-.11-2.47-.41-3.71-.62,.02-.35,.04-.68,.06-1.03,.85-.17,1.7-.47,2.54-.47,14.86-.01,29.71-.07,44.57,.05,6.04,.05,11.52,2.06,16.22,5.93,4.72,3.9,6.82,8.86,5.69,14.97-1.05,5.62-5.08,8.42-10.03,10.24-1.67,.61-3.4,1.05-4.97,1.52,3.8,1.71,7.77,2.94,11.13,5.1,10.1,6.51,10.68,19.35,1.53,27.14-4.69,3.99-10.12,5.74-16.2,5.74-15.57,0-31.15,0-46.72,0h-3.8c3.07,10.2,8.6,17.91,17.48,22.87,26.27,14.68,56.74-3.2,57.05-33.53,.21-21.32,.16-42.65,0-63.97Zm-177.72,101.96c0,6.38-5.92,11.8-12.9,11.82-7.05,.01-12.9-5.29-12.93-11.74-.04-6.54,5.65-11.92,12.68-11.98,7.24-.06,13.16,5.29,13.15,11.9Zm17.84-87.83c-.31,.16-.62,.32-.93,.47-.91-2.43-1.92-4.83-2.57-7.33-.07-.28,1.93-1.1,3.51-1.98v8.83Zm60.73,80.59c-11.79,8.76-27.75,9.51-40.63,1.95-13.77-8.09-20.32-23.24-17.91-41.95h18.41c.03-.41,.05-.82,.08-1.22-1.82-.11-3.63-.25-5.45-.32-5.87-.22-5.67-.41-6.15-6.07-.86-9.91,.7-18.96,7.23-26.83,1.44-1.74,2.48-3.81,3.59-5.8,2.49-4.48,5.1-8.76,10.83-9.91h-20.13c-.04,.17-.07,.35-.11,.52,.82,.17,1.64,.33,2.45,.5,5.28,1.09,7.11,4.39,4.61,9.23-2.57,4.97-5.63,9.7-8.5,14.57-7.88-6.59-9.75-22.7-5.32-24.32-.63-1.32-1.78-2.62-1.8-3.92-.17-19.39,13.41-35.08,32.49-37.75,17.94-2.51,35.47,9.53,40.33,27.83,.64,2.41,.92,4.94,1.09,7.43,.19,2.87,.08,5.75,.08,8.63,0,11.49,0,22.99-.71,34.75-4.87-12.87-9.74-25.74-14.61-38.62-.44,0-.88,.01-1.32,.01-.55,1.25-1.19,2.47-1.65,3.75-4.35,12.04-8.66,24.09-13,36.13-1.9,5.29-4.47,9.93-10.95,10.88h19.47c.06-.17,.11-.33,.17-.49-1.03-.21-2.05-.43-3.08-.63-4.04-.78-5.42-2.89-4.5-6.89q2.06-8.95,10.98-8.96c2.02,0,4.05,0,6.19,0,1.55,4.36,2.96,8.55,4.51,12.7,.79,2.11-.16,2.93-2.05,3.11-2.31,.22-4.65,.29-6.97,.42v.93h17.19c1.59,16.27-1.3,30.29-14.87,40.36Zm1.55-58.97h-13c2.12-5.95,4.13-11.57,6.14-17.18,.27,.01,.55,.03,.83,.04,1.97,5.59,3.94,11.19,6.03,17.14Zm58.79-61.07c-7.19-.11-12.93-5.7-12.7-12.35,.22-6.45,6.18-11.54,13.28-11.37,7.05,.17,12.71,5.64,12.56,12.13-.14,6.38-6.18,11.7-13.14,11.59Z"/>
      <path class="cls-1" d="M134.2,68.35c-.01-14.74-6.41-25.99-18.87-33.76-1.85-1.15-2.63-2.36-2.6-4.58,.13-8.74,.06-17.48,.06-26.23,0-1.25-.12-2.5-.18-3.78H.3C.22,1.22,.1,2.28,.1,3.33c-.02,15.69-.02,31.38-.03,47.07,0,.6-.19,1.31,.06,1.78,.39,.7,1.06,1.69,1.65,1.73,.68,.04,1.77-.69,2.05-1.35,.51-1.18,.45-2.58,.8-3.85,2.42-8.98,4.31-18.16,7.48-26.87C16.62,9.47,25.48,2.27,39.26,2.32c5.02,.01,5.51,.37,5.51,5.46-.01,33.06-.02,66.12-.05,99.17,0,1.67-.18,3.34-.19,5.01-.02,3.69-2.12,5.48-5.53,5.78-6.66,.58-13.35,.93-20.01,1.54-1.27,.11-2.48,.96-3.72,1.46,1.19,.43,2.38,1.21,3.57,1.23,11.26,.1,22.52,.06,33.78,.07h4.24v48.92h77.36v-3.24c0-33.12,.01-66.24-.02-99.36ZM68.66,7.35c.01-4.75,.41-5.1,5.1-5.01,14.53,.26,23.33,7.02,28.69,22.08,.59,1.65,1.05,3.34,1.71,5.45-13.27-2.13-24.89,.41-35.11,9.59-.16-1.32-.36-2.19-.36-3.05-.03-9.69-.04-19.37-.02-29.06Zm64.03,159.08c0,.82-.09,1.65-.15,2.73H58.82v-47.24h39.1c.16-.42,.31-.85,.46-1.27-1.01-.48-1.99-1.3-3.04-1.39-7.02-.59-14.06-.99-21.1-1.52-3.49-.26-5.5-2.01-5.46-5.71,.01-1.08-.11-2.16-.11-3.23,0-20.96,.04-41.92-.06-62.88-.01-2.82,.91-4.73,3.05-6.44,9.01-7.2,19.12-10.23,30.53-8,1.25,.24,2.93,1.7,3.23,2.89,1.41,5.68,2.55,11.44,3.48,17.22,.4,2.44,1.29,3.1,3.9,2.17v-18.03c.34-.24,.68-.47,1.02-.71,3.4,3.04,7.14,5.79,10.13,9.19,6.28,7.14,8.77,15.74,8.76,25.2-.04,32.33,0,64.67,0,97.01Z"/>
      <path class="cls-1" d="M385.47,127.76c-.7,7.35-5.75,11.91-13.13,12.08-3.93,.09-7.87-.16-11.8-.32-1.94-.08-3.05-1-3.04-3.14,.04-10.09,.01-20.19,.01-30.36,5.18,0,10.45-.47,15.6,.12,6.58,.76,10.92,5.38,11.97,12,.5,3.16,.69,6.45,.4,9.61Z"/>
      <path class="cls-1" d="M382.42,89.8c-.26,8.72-3.46,12.47-12.11,13.46-4.23,.49-8.55,.09-12.92,.09,0-8.99,.02-17.6-.01-26.19,0-2.4,1.12-3.58,3.48-3.48,4.05,.18,8.15,.13,12.15,.73,5.22,.79,8.25,4.15,9.02,9.31,.3,2.01,.45,4.05,.4,6.08Z"/>
      <path class="cls-1" d="M105.4,109.87c-2.22,.14-4.45,.28-6.67,.42v.76h28.34c-.25-.42-.29-.56-.37-.58-.33-.12-.69-.29-1.02-.26-4.77,.55-6.87-1.89-8.4-6.24-4.72-13.41-9.88-26.67-14.89-39.97-.47-1.24-1.19-2.39-1.79-3.59-.36,0-.73-.01-1.09-.03-.86,2.29-1.74,4.56-2.57,6.86-4.26,11.67-8.48,23.35-12.77,35.01-1.54,4.18-4.21,7.2-8.89,7.94-.35,.06-.65,.42-1.17,.77h19.44c-.81-.69-1.61-.86-2.42-1.01-4.84-.91-6.23-3.18-4.8-7.92,.55-1.83,1.27-3.62,1.75-5.46,.5-1.87,1.37-2.78,3.5-2.65,3.1,.21,6.23-.13,9.32,.13,1.1,.09,2.65,1.04,3.07,1.99,1.5,3.37,2.53,6.95,3.88,10.39,.98,2.52-.22,3.29-2.42,3.43Zm-15.74-17.44c2.11-5.89,4.15-11.54,6.53-18.18,2.37,6.63,4.36,12.22,6.49,18.18h-13.02Z"/>
    </g>
  </g>
</svg>